<svg width="157" height="41" viewBox="0 0 157 41" fill="none" xmlns="http://www.w3.org/2000/svg">
<path d="M83.1912 35.1828C81.6525 35.1828 80.405 33.9354 80.405 32.3966V6.62849C80.405 5.07953 81.6607 3.82385 83.2097 3.82385C84.7586 3.82385 86.0143 5.07953 86.0143 6.62849V15.4218C86.0143 16.0031 85.3721 16.3551 84.8821 16.0423L84.8193 16.0022C84.3901 15.7282 84.363 15.1124 84.7874 14.8311C85.7488 14.1939 86.8056 13.6608 87.9577 13.2316C89.4594 12.6721 90.9611 12.3924 92.4628 12.3924C94.1412 12.3924 95.5987 12.6721 96.8354 13.2316C98.0721 13.791 99.029 14.7038 99.7063 15.9699C100.413 17.2066 100.766 18.885 100.766 21.005V32.3782C100.766 33.9272 99.5106 35.1828 97.9616 35.1828C96.4127 35.1828 95.157 33.9272 95.157 32.3782V21.9767C95.157 20.3278 94.7595 19.1058 93.9645 18.3108C93.1989 17.4864 92.0358 17.0741 90.4752 17.0741C89.6802 17.0741 88.8852 17.1919 88.0902 17.4275C87.4528 17.6163 86.8816 17.8431 86.3767 18.1076C86.1482 18.2273 86.0139 18.4685 86.0132 18.7263L85.9774 32.4039C85.9734 33.9399 84.7272 35.1828 83.1912 35.1828Z" fill="#171E1D"/>
<path d="M113.601 35.8454C109.95 35.8454 107.211 34.8295 105.386 32.7978C103.56 30.7661 102.647 27.8363 102.647 24.0084C102.647 19.9156 103.575 16.9416 105.43 15.0866C107.314 13.2316 110.023 12.304 113.557 12.304C116.03 12.304 118.091 12.7457 119.74 13.6291C121.389 14.483 122.611 15.7785 123.406 17.5158C124.23 19.2531 124.643 21.4173 124.643 24.0084C124.643 27.8363 123.686 30.7661 121.772 32.7978C119.887 34.8295 117.164 35.8454 113.601 35.8454ZM113.601 31.2519C114.896 31.2519 115.942 30.9575 116.737 30.3686C117.561 29.7797 118.165 28.9552 118.548 27.8952C118.93 26.8057 119.122 25.5101 119.122 24.0084C119.122 22.3301 118.916 20.9609 118.503 19.9009C118.121 18.8408 117.517 18.0605 116.693 17.56C115.897 17.0594 114.867 16.8091 113.601 16.8091C112.305 16.8091 111.26 17.0741 110.465 17.6041C109.67 18.1342 109.081 18.9292 108.698 19.9892C108.345 21.0492 108.168 22.389 108.168 24.0084C108.168 26.364 108.595 28.1602 109.449 29.3969C110.303 30.6336 111.687 31.2519 113.601 31.2519Z" fill="#171E1D"/>
<path d="M133.078 35.8454C131.488 35.8454 130.133 35.6687 129.015 35.3154C128.322 35.1148 127.646 34.8861 126.987 34.6292C126.25 34.3414 125.79 33.6149 125.79 32.823V31.5651C125.79 30.4994 126.981 29.8479 127.91 30.3686C128.676 30.7514 129.486 31.0605 130.34 31.2961C131.223 31.5317 132.165 31.6494 133.166 31.6494C134.344 31.6494 135.213 31.4286 135.772 30.9869C136.361 30.5158 136.656 29.9563 136.656 29.3086C136.656 28.6902 136.435 28.2191 135.993 27.8952C135.551 27.5419 134.977 27.2474 134.271 27.0118C133.564 26.7763 132.813 26.5407 132.018 26.3052C131.282 26.1285 130.531 25.8929 129.765 25.5985C129.029 25.304 128.352 24.9065 127.734 24.406C127.115 23.9054 126.615 23.2723 126.232 22.5067C125.879 21.7117 125.702 20.7548 125.702 19.6359C125.702 18.3108 125.967 17.1919 126.497 16.2791C127.027 15.3663 127.719 14.6302 128.573 14.0707C129.427 13.5113 130.369 13.1138 131.4 12.8782C132.43 12.6132 133.431 12.4807 134.403 12.4807C136.081 12.5396 137.436 12.7457 138.466 13.099C139.126 13.3063 139.761 13.5557 140.372 13.8473C141.011 14.152 141.386 14.8137 141.393 15.5214L141.393 15.5707C141.408 17.0775 139.794 18.051 138.422 17.4275C137.451 16.9564 136.346 16.7208 135.11 16.7208C133.961 16.7208 133.063 16.9269 132.415 17.3391C131.797 17.7219 131.488 18.2667 131.488 18.9733C131.488 19.5917 131.679 20.0923 132.062 20.475C132.445 20.8578 132.945 21.1523 133.564 21.3584C134.182 21.5645 134.859 21.7706 135.596 21.9767C136.332 22.1828 137.097 22.4184 137.892 22.6834C138.687 22.919 139.423 23.2723 140.101 23.7434C140.778 24.2146 141.323 24.8476 141.735 25.6426C142.177 26.4082 142.397 27.4388 142.397 28.7344C142.368 30.4422 141.912 31.8261 141.028 32.8861C140.145 33.9167 138.982 34.6676 137.539 35.1387C136.126 35.6098 134.639 35.8454 133.078 35.8454Z" fill="#171E1D"/>
<path d="M152.893 35.8895C150.596 35.8895 148.844 35.3301 147.637 34.2112C146.43 33.0628 145.826 31.4139 145.826 29.2644V18.0753C145.826 17.6687 145.497 17.3391 145.09 17.3391H143.117C142.711 17.3391 142.381 17.0096 142.381 16.603V13.6585C142.381 13.252 142.711 12.9224 143.117 12.9224H145.09C145.497 12.9224 145.826 12.5928 145.826 12.1863V9.67606C145.826 8.07831 147.121 6.78308 148.719 6.78308C150.317 6.78308 151.612 8.07831 151.612 9.67606V12.1863C151.612 12.5928 151.942 12.9224 152.348 12.9224H154.571C155.791 12.9224 156.78 13.9111 156.78 15.1308C156.78 16.3504 155.791 17.3391 154.571 17.3391H152.348C151.942 17.3391 151.612 17.6687 151.612 18.0753V28.381C151.612 29.2938 151.789 29.9711 152.142 30.4127C152.496 30.8544 153.114 31.0753 153.997 31.0753C154.468 31.0753 154.954 31.0016 155.455 30.8544C156.049 30.6562 156.78 31.0757 156.78 31.7025V33.8869C156.78 34.627 156.367 35.3262 155.655 35.5294C155.392 35.6047 155.119 35.6658 154.836 35.7129C154.159 35.8306 153.511 35.8895 152.893 35.8895Z" fill="#171E1D"/>
<path d="M5.56512 32.4003C5.56512 33.937 4.31932 35.1828 2.78256 35.1828C1.24579 35.1828 0 33.937 0 32.4003V7.31308C0 5.77631 1.24579 4.53052 2.78256 4.53052C4.31932 4.53052 5.56512 5.77631 5.56512 7.31308V32.4003Z" fill="#171E1D"/>
<path d="M18.4013 35.8454C14.7501 35.8454 12.0117 34.8295 10.1862 32.7978C8.36056 30.7661 7.44776 27.8363 7.44776 24.0084C7.44776 19.9156 8.37528 16.9416 10.2303 15.0866C12.1148 13.2315 14.8238 12.304 18.3572 12.304C20.8305 12.304 22.8917 12.7457 24.5406 13.629C26.1895 14.4829 27.4115 15.7785 28.2065 17.5158C29.031 19.2531 29.4432 21.4173 29.4432 24.0084C29.4432 27.8363 28.4863 30.7661 26.5723 32.7978C24.6878 34.8295 21.9642 35.8454 18.4013 35.8454ZM18.4013 31.2519C19.6969 31.2519 20.7422 30.9575 21.5372 30.3686C22.3617 29.7797 22.9653 28.9552 23.3481 27.8952C23.7309 26.8057 23.9223 25.5101 23.9223 24.0084C23.9223 22.3301 23.7162 20.9609 23.3039 19.9008C22.9211 18.8408 22.3175 18.0605 21.4931 17.56C20.698 17.0594 19.6675 16.8091 18.4013 16.8091C17.1057 16.8091 16.0604 17.0741 15.2654 17.6041C14.4704 18.1341 13.8815 18.9292 13.4987 19.9892C13.1454 21.0492 12.9687 22.389 12.9687 24.0084C12.9687 26.364 13.3957 28.1602 14.2496 29.3969C15.1035 30.6336 16.4874 31.2519 18.4013 31.2519Z" fill="#171E1D"/>
<path d="M41.4561 35.6687C39.9839 35.6687 38.5705 35.4626 37.216 35.0503C35.8616 34.6381 34.6543 33.9756 33.5943 33.0628C32.5343 32.15 31.6951 30.9722 31.0767 29.5294C30.4584 28.0866 30.1492 26.3346 30.1492 24.2734C30.1492 22.1239 30.4437 20.2984 31.0326 18.7967C31.6215 17.295 32.4312 16.073 33.4618 15.1307C34.4924 14.1591 35.6849 13.4671 37.0394 13.0549C38.4233 12.6132 39.8808 12.3923 41.412 12.3923C42.5898 12.3923 43.797 12.5101 45.0337 12.7457C45.7339 12.8791 46.3917 13.0455 47.0069 13.2449C47.839 13.5147 48.3463 14.3231 48.3463 15.1979V15.4317C48.3463 16.9332 46.7943 17.9442 45.3429 17.56C44.3417 17.2655 43.3112 17.1183 42.2511 17.1183C40.19 17.1183 38.5852 17.6336 37.4369 18.6642C36.2885 19.6947 35.7143 21.3878 35.7143 23.7434C35.7143 26.1579 36.2296 27.9541 37.2602 29.1319C38.3202 30.3097 40.0575 30.8986 42.472 30.8986C43.5614 30.8986 44.6215 30.7366 45.652 30.4127C46.7022 30.0527 47.8503 30.9034 47.973 32.0067C48.0034 32.2791 48.0482 32.5443 48.1033 32.8232C48.2598 33.6155 47.8846 34.426 47.1271 34.7061C46.4893 34.9419 45.8357 35.1302 45.1662 35.2712C44.0473 35.5362 42.8106 35.6687 41.4561 35.6687Z" fill="#171E1D"/>
<circle cx="61.4387" cy="11.0429" r="2.98166" fill="#00C29F"/>
<path d="M78.0312 32.4003C78.0312 33.937 76.7854 35.1828 75.2486 35.1828C73.7119 35.1828 72.4661 33.937 72.4661 32.4003V6.57224C72.4661 5.03547 73.7119 3.78967 75.2486 3.78967C76.7854 3.78967 78.0312 5.03547 78.0312 6.57223V32.4003Z" fill="#171E1D"/>
<path d="M57.3906 39.6128C52.43 38.8777 48.9864 34.2594 49.7297 29.244C49.9318 27.88 50.0684 27.0891 50.2515 25.7224C50.3499 24.9616 51.6447 21.3828 52.7672 20.2591C54.568 18.4563 55.3226 18.1822 57.26 17.4627C59.593 16.5963 62.7313 17.0568 64.6936 15.7396C66.0399 14.8394 66.9497 13.3998 67.1883 11.7895C67.2111 11.6359 67.2272 11.4919 67.2365 11.3496C67.2441 11.2544 67.2479 11.1587 67.2503 11.0628C67.253 10.9657 67.2531 10.8681 67.2505 10.7714C67.2436 10.5449 67.2245 10.3219 67.1936 10.1077C66.9185 8.20627 65.7272 6.58186 64.0081 5.76406C63.8156 5.67224 63.6103 5.58776 63.3966 5.51652C63.3059 5.48594 63.2136 5.45775 63.1208 5.43215C63.0294 5.40673 62.9378 5.3826 62.8443 5.36215C62.7069 5.32993 62.566 5.30377 62.4154 5.28146C62.2648 5.25914 62.1211 5.24312 61.9803 5.23412C61.8862 5.22677 61.7915 5.22329 61.6966 5.22109C61.6004 5.21871 61.5039 5.21891 61.4082 5.22188C61.3361 5.22438 61.2638 5.22817 61.1941 5.23234C61.1244 5.23651 61.0542 5.24326 60.9865 5.25168C60.9189 5.25881 60.8526 5.26613 60.787 5.27751C60.6511 5.29693 60.5265 5.31934 60.4064 5.34638C58.5161 5.75459 56.9237 7.14451 56.2537 8.97308L56.2527 8.97953L56.2505 8.98579C56.234 9.02686 56.2159 9.07825 56.1973 9.13351C56.1667 9.22524 56.1385 9.31865 56.1129 9.41243C56.0875 9.50492 56.0633 9.5976 56.0428 9.69213C56.0352 9.7253 56.0279 9.75718 56.0217 9.79054C55.668 10.4172 54.9573 10.7682 54.2516 10.6636C53.4003 10.5375 52.7769 9.81607 52.7672 8.94829C52.8345 8.63519 52.9202 8.32086 53.0201 8.01655L53.0282 7.99666C54.4356 3.7627 58.6283 1.15992 62.9929 1.8067C65.3871 2.16148 67.5027 3.4455 68.9512 5.42054C70.4009 7.39576 71.0009 9.81603 70.6422 12.2367L67.7358 31.8494C66.9926 36.8648 62.3512 40.3479 57.3906 39.6128Z" fill="#00C29F"/>
</svg>
